<svg width="512" height="512" viewBox="0 0 512 512" fill="none" xmlns="http://www.w3.org/2000/svg">
    <g clip-path="url(#clip0_37_8)">
        <path d="M436 100H77V412H436V100Z" fill="white"/>
        <path fill-rule="evenodd" clip-rule="evenodd" d="M155.582 304.915C147.251 313.246 147.251 326.754 155.582 335.085C163.913 343.415 177.421 343.415 185.752 335.085L239.085 281.751C253.308 267.529 253.308 244.471 239.085 230.249L185.752 176.915C177.421 168.584 163.913 168.584 155.582 176.915C147.251 185.246 147.251 198.754 155.582 207.085L204.497 256L155.582 304.915ZM277.333 298.667C265.551 298.667 256 308.218 256 320C256 331.782 265.551 341.333 277.333 341.333H341.333C353.116 341.333 362.667 331.782 362.667 320C362.667 308.218 353.116 298.667 341.333 298.667H277.333ZM469.333 169.262C469.333 169.729 469.333 170.197 469.333 170.667V342.737C469.335 361.649 469.335 377.943 467.582 390.993C465.7 404.977 461.461 418.383 450.588 429.254C439.716 440.128 426.31 444.367 412.326 446.249C399.277 448.002 382.982 448.002 364.07 448H147.93C129.018 448.002 112.723 448.002 99.674 446.249C85.6896 444.367 72.2848 440.128 61.4121 429.254C50.5391 418.383 46.2993 404.977 44.4192 390.993C42.6648 377.943 42.6656 361.649 42.6667 342.737V169.263C42.6656 150.351 42.6648 134.056 44.4192 121.007C46.2993 107.023 50.5391 93.6181 61.4121 82.7452C72.2848 71.8724 85.6896 67.6326 99.674 65.7525C112.723 63.9981 129.017 63.9989 147.929 64L362.667 64.0002C363.136 64.0002 363.605 64 364.07 64C382.982 63.9989 399.277 63.9981 412.326 65.7525C426.31 67.6326 439.716 71.8724 450.588 82.7454C461.461 93.6181 465.7 107.023 467.582 121.007C469.335 134.056 469.335 150.351 469.333 169.262Z" fill="#323232"/>
        <g filter="url(#filter0_d_37_8)">
            <rect x="69" y="90" width="375" height="331.841" rx="42.5438" stroke="white" stroke-width="30" shape-rendering="crispEdges"/>
        </g>
    </g>
    <defs>
        <filter id="filter0_d_37_8" x="49.7456" y="75" width="413.509" height="370.35" filterUnits="userSpaceOnUse" color-interpolation-filters="sRGB">
            <feFlood flood-opacity="0" result="BackgroundImageFix"/>
            <feColorMatrix in="SourceAlpha" type="matrix" values="0 0 0 0 0 0 0 0 0 0 0 0 0 0 0 0 0 0 127 0" result="hardAlpha"/>
            <feOffset dy="4.25438"/>
            <feGaussianBlur stdDeviation="2.12719"/>
            <feComposite in2="hardAlpha" operator="out"/>
            <feColorMatrix type="matrix" values="0 0 0 0 0 0 0 0 0 0 0 0 0 0 0 0 0 0 0.25 0"/>
            <feBlend mode="normal" in2="BackgroundImageFix" result="effect1_dropShadow_37_8"/>
            <feBlend mode="normal" in="SourceGraphic" in2="effect1_dropShadow_37_8" result="shape"/>
        </filter>
        <clipPath id="clip0_37_8">
            <rect width="512" height="512" rx="20" fill="white"/>
        </clipPath>
    </defs>
</svg>
